<svg width="28" height="26" viewBox="0 0 28 26" fill="none" xmlns="http://www.w3.org/2000/svg">
<path d="M7.18225 15.4656L6.32221 18.537L3.17881 18.6007C2.2394 16.9338 1.70654 15.0267 1.70654 13C1.70654 11.0403 2.20475 9.19223 3.08785 7.56497H3.08852L5.88703 8.0558L7.11295 10.7169C6.85637 11.4325 6.71652 12.2007 6.71652 13C6.71662 13.8676 6.88088 14.6988 7.18225 15.4656Z" fill="#FBBB00"/>
<path d="M26.1981 10.7922C26.34 11.5071 26.4139 12.2454 26.4139 13C26.4139 13.8461 26.321 14.6714 26.1438 15.4675C25.5424 18.1766 23.971 20.5422 21.7942 22.2162L21.7936 22.2156L18.2687 22.0435L17.7698 19.0643C19.2142 18.2539 20.343 16.9857 20.9377 15.4675H14.3318V10.7922H21.034H26.1981Z" fill="#518EF8"/>
<path d="M21.7935 22.2156L21.7942 22.2163C19.6771 23.8442 16.9877 24.8182 14.0602 24.8182C9.35558 24.8182 5.26529 22.3026 3.17871 18.6007L7.18215 15.4656C8.22541 18.1293 10.9113 20.0254 14.0602 20.0254C15.4136 20.0254 16.6816 19.6754 17.7697 19.0643L21.7935 22.2156Z" fill="#28B446"/>
<path d="M21.9457 3.90259L17.9436 7.03699C16.8175 6.36364 15.4864 5.97465 14.0603 5.97465C10.8402 5.97465 8.10404 7.95775 7.11304 10.7169L3.08857 7.56493H3.08789C5.14392 3.77273 9.28581 1.18182 14.0603 1.18182C17.0578 1.18182 19.8062 2.20327 21.9457 3.90259Z" fill="#F14336"/>
</svg>
